<svg width="103" height="104" viewBox="0 0 103 104" fill="none" xmlns="http://www.w3.org/2000/svg">
<g clip-path="url(#clip0_4961_6125)">
<path d="M5.09504 103.409C2.56056 103.409 0.5 101.341 0.5 98.7975V20.1049C0.5 19.8851 0.618482 19.4457 0.881203 19.1639L19.5524 0.400702C19.8332 0.121503 20.2839 0 20.5157 0H73.6961C76.2306 0 78.2911 2.06814 78.2911 4.61195V29.745L83.8005 21.7129C85.601 19.0863 88.5759 17.5171 91.7594 17.5171C93.717 17.5171 95.6049 18.1091 97.2225 19.2259C101.452 22.1472 102.655 27.8785 99.9604 32.2707L99.8549 32.4413L99.9965 32.5861C102.662 35.3238 103.031 39.5997 100.87 42.751L87.7414 61.8942C87.4889 62.2665 87.0691 62.4862 86.6209 62.4862C86.3479 62.4862 86.08 62.4035 85.8508 62.2458C85.2326 61.8192 85.0755 60.9661 85.5005 60.3457L98.6262 41.2051C99.8986 39.3515 99.8497 36.8775 98.5026 35.0524L98.2888 34.7628L85.8199 52.9443C85.5675 53.3166 85.1476 53.5363 84.6943 53.5363C84.4213 53.5363 84.156 53.4536 83.9268 53.2959L82.8836 52.5721L78.3349 59.1979L78.2886 98.7975C78.2886 101.341 76.228 103.409 73.6935 103.409H5.09504ZM3.21993 98.7975C3.21993 99.8342 4.06219 100.68 5.09504 100.68H73.6961C74.7289 100.68 75.5712 99.8342 75.5712 98.7975V63.2307L61.7243 83.4287C60.6244 85.0341 60.0346 85.8949 59.7307 86.368L59.7178 86.3577L59.468 86.7248C58.1646 88.6326 56.0165 89.7701 53.7216 89.7701C52.8304 89.7701 51.9469 89.5995 51.0944 89.2608L50.9012 89.1884L48.7582 92.3088C48.5032 92.6784 48.086 92.9008 47.6378 92.9008C47.3622 92.9008 47.0969 92.818 46.8677 92.6603C46.2495 92.2338 46.0924 91.3807 46.5174 90.7628L48.6449 87.658L48.5058 87.5055C46.3165 85.1065 46.0537 81.42 47.8825 78.7392L71.3058 44.5813L70.2601 43.86C69.6445 43.4335 69.4874 42.583 69.9124 41.9625L75.5197 33.7779L75.566 4.61453C75.566 3.57788 74.7238 2.73253 73.6909 2.73253H21.8731V14.3994C21.8731 18.3004 18.7153 21.4699 14.8363 21.4699H3.21993V98.7975ZM73.0599 46.908C72.2769 48.0041 70.3194 50.8581 65.2195 58.2905L50.1362 80.2774C48.8149 82.2007 49.3197 84.9513 51.2386 86.2801C51.9263 86.7532 52.7402 86.9988 53.5979 86.9988C55.0635 86.9988 56.4518 86.2982 57.2219 85.1711C70.716 65.4902 74.4611 60.0277 75.4733 58.4585L75.5094 58.4973L75.7463 58.1535L80.6402 51.0184L73.8455 46.3263L73.7888 46.2177H73.6909L73.5596 46.1272L73.0393 46.8873L73.0599 46.908ZM72.9337 42.3813L84.3517 50.2713L97.462 31.1513C98.5103 29.6235 98.9018 27.7751 98.5644 25.9448C98.227 24.1145 97.2019 22.5298 95.6796 21.475C94.5206 20.6736 93.1632 20.2471 91.7594 20.2471C89.4722 20.2471 87.337 21.3742 86.0414 23.2614C85.995 23.326 85.9564 23.3829 85.9255 23.4346C85.3975 24.1972 72.9337 42.3813 72.9337 42.3813ZM5.14913 18.7347H14.8337C17.2163 18.7347 19.1532 16.7907 19.1532 14.3994V4.66365L5.14913 18.7347Z" fill="white"/>
<path d="M30.2081 13.7629C29.7393 13.7629 29.3633 13.3829 29.3633 12.9124C29.3633 12.4445 29.7393 12.0645 30.2081 12.0645H66.5641C67.0277 12.0645 67.4064 12.4445 67.4064 12.9124C67.4064 13.3803 67.0277 13.7629 66.5641 13.7629H30.2081Z" fill="white"/>
<path d="M30.2081 23.716C29.7393 23.716 29.3633 23.336 29.3633 22.8681C29.3633 22.4002 29.7393 22.0176 30.2081 22.0176H66.5641C67.0277 22.0176 67.4064 22.3976 67.4064 22.8681C67.4064 23.336 67.0277 23.716 66.5641 23.716H30.2081Z" fill="white"/>
<path d="M15.3256 53.564C13.9683 53.564 12.8633 52.455 12.8633 51.09V34.4467C12.8633 33.0843 13.9683 31.9727 15.3256 31.9727H41.6158C42.9732 31.9727 44.0807 33.0817 44.0807 34.4467V51.09C44.0807 52.4524 42.9732 53.564 41.6158 53.564H15.3256ZM14.5555 51.8656H42.3936V33.6711H14.5555V51.8656Z" fill="white"/>
<path d="M19.9968 94.717C19.1082 94.717 17.8281 94.0164 16.9936 87.9722C16.8622 87.0183 16.6845 86.2738 16.463 85.7619L16.0406 84.7796L15.2395 85.4879C14.6368 86.023 13.7971 87.1838 13.2434 88.2515C13.0966 88.5307 12.8106 88.7039 12.4938 88.7039C12.3573 88.7039 12.226 88.6702 12.0998 88.6056C11.9014 88.4996 11.7546 88.3264 11.6851 88.1119C11.6155 87.8973 11.6361 87.6672 11.7417 87.4656C12.7617 85.5008 14.405 83.3991 15.953 83.3991C16.0535 83.3991 16.1565 83.4068 16.2569 83.4249C18.1114 83.7481 18.5107 86.6461 18.6626 87.737C18.8481 89.0632 19.0413 90.0507 19.2241 90.7798L20.7258 90.7668C20.8906 90.0404 21.0709 89.0606 21.2332 87.7525C21.9389 81.9746 23.4328 78.5234 25.2358 78.5234C26.4 78.5493 27.6724 79.5963 28.2777 87.1786C28.4297 89.1175 28.6666 90.604 28.9834 91.5941L29.4496 93.0495L30.346 91.8138C30.789 91.2037 31.2604 90.3403 31.7549 89.2493C32.3396 87.949 33.6326 87.1062 35.0492 87.1062H37.0402C37.5064 87.1062 37.8851 87.4862 37.8851 87.9567C37.8851 88.4272 37.5064 88.8073 37.0402 88.8073H35.0492C34.2945 88.8073 33.6017 89.2545 33.2926 89.9499C32.4426 91.8319 31.1316 94.3344 29.5295 94.3344C29.4316 94.3344 29.3286 94.3266 29.2281 94.3085C28.1824 94.1276 27.0543 93.1529 26.5906 87.3156C26.4052 84.9864 26.1425 83.1509 25.8102 81.8583L25.2204 79.5678L24.3446 81.7652C23.9814 82.6778 23.3143 84.6968 22.9125 87.9593C22.1759 93.9957 20.9035 94.7092 20.0097 94.717H19.9968Z" fill="white"/>
<path d="M12.4972 73.8786C12.0335 73.8786 11.6523 73.4986 11.6523 73.0281C11.6523 72.5602 12.0335 72.1802 12.4972 72.1802H51.7688L50.6072 73.8786H12.4972ZM12.4972 63.9283C12.0335 63.9283 11.6523 63.5483 11.6523 63.0804C11.6523 62.6124 12.0335 62.2324 12.4972 62.2324H58.5944L57.4328 63.9283H12.4972Z" fill="white"/>
</g>
<defs>
<clipPath id="clip0_4961_6125">
<rect width="102" height="104" fill="white" transform="translate(0.5)"/>
</clipPath>
</defs>
</svg>
