<svg width="116" height="98" viewBox="0 0 116 98" fill="none" xmlns="http://www.w3.org/2000/svg">
  <g clip-path="url(#clip0_5108_9203)">
  <path d="M61.4132 65.4808H1.18637C0.534895 65.4808 0 64.9604 0 64.3192V16.1616C0 15.5237 0.531466 15 1.18637 15H61.4098C62.0613 15 62.5962 15.5204 62.5962 16.1616V64.3192C62.5962 64.9604 62.0647 65.4808 61.4132 65.4808ZM2.37273 63.1576H60.2269V17.3231H2.37273V63.1576Z" fill="#023F6B"/>
  <path d="M10.7828 59.5975C10.7828 59.5976 10.7817 59.5974 10.7797 59.5965C10.7818 59.5969 10.7828 59.5973 10.7828 59.5975ZM10.8277 59.5216C10.8017 59.5607 10.781 59.5802 10.7682 59.5895C10.7555 59.5803 10.735 59.561 10.7092 59.5221C10.649 59.4316 10.5957 59.2777 10.5957 59.0832V20.7232C10.5957 20.5288 10.649 20.3749 10.7092 20.2844C10.7354 20.2449 10.7561 20.2256 10.7688 20.2165C10.7815 20.2256 10.8021 20.2449 10.8284 20.2844C10.8885 20.3749 10.9419 20.5288 10.9419 20.7232V59.0832C10.9419 59.2768 10.8883 59.4306 10.8277 59.5216ZM10.7828 20.209C10.7828 20.2091 10.7818 20.2096 10.7797 20.21C10.7817 20.2091 10.7827 20.2089 10.7828 20.209ZM10.7548 20.209C10.7548 20.2089 10.7559 20.2091 10.7579 20.21C10.7558 20.2096 10.7548 20.2091 10.7548 20.209ZM10.7564 59.5966C10.7546 59.5975 10.7536 59.5977 10.7536 59.5976C10.7536 59.5975 10.7545 59.5971 10.7564 59.5966Z" fill="#023F6B" stroke="#023F6B"/>
  <path d="M20.8785 59.5975C20.8785 59.5976 20.8774 59.5974 20.8754 59.5965C20.8775 59.5969 20.8785 59.5973 20.8785 59.5975ZM20.9241 59.5221C20.8979 59.5616 20.8772 59.5809 20.8645 59.59C20.8518 59.5809 20.8311 59.5616 20.8049 59.5221C20.7447 59.4316 20.6914 59.2777 20.6914 59.0832V20.7232C20.6914 20.5288 20.7447 20.3749 20.8049 20.2844C20.8311 20.2449 20.8518 20.2256 20.8645 20.2165C20.8772 20.2256 20.8979 20.2449 20.9241 20.2844C20.9842 20.3749 21.0376 20.5288 21.0376 20.7232V59.0832C21.0376 59.2777 20.9842 59.4316 20.9241 59.5221ZM20.8785 20.209C20.8785 20.2091 20.8775 20.2096 20.8754 20.21C20.8774 20.2091 20.8785 20.2089 20.8785 20.209ZM20.8505 20.209C20.8505 20.2089 20.8516 20.2091 20.8536 20.21C20.8515 20.2096 20.8505 20.2091 20.8505 20.209ZM20.8536 59.5965C20.8516 59.5974 20.8505 59.5976 20.8505 59.5975C20.8505 59.5973 20.8515 59.5969 20.8536 59.5965Z" fill="#023F6B" stroke="#023F6B"/>
  <mask id="path-4-inside-1_5108_9203" fill="white">
  <path d="M40.0475 60.0956C39.8614 60.0956 39.7109 59.6415 39.7109 59.0832V20.7232C39.7109 20.165 39.8614 19.7109 40.0475 19.7109C40.2335 19.7109 40.384 20.165 40.384 20.7232V59.0832C40.384 59.6415 40.2322 60.0956 40.0475 60.0956Z"/>
  </mask>
  <path d="M40.0475 60.0956C39.8614 60.0956 39.7109 59.6415 39.7109 59.0832V20.7232C39.7109 20.165 39.8614 19.7109 40.0475 19.7109C40.2335 19.7109 40.384 20.165 40.384 20.7232V59.0832C40.384 59.6415 40.2322 60.0956 40.0475 60.0956Z" fill="#023F6B"/>
  <path d="M40.0475 59.0956C40.4402 59.0956 40.654 59.336 40.7029 59.3983C40.761 59.4723 40.7696 59.5172 40.7585 59.4836C40.7396 59.4268 40.7109 59.285 40.7109 59.0832H38.7109C38.7109 59.4397 38.7575 59.8041 38.8604 60.114C38.9101 60.2636 38.9913 60.4569 39.1299 60.6335C39.2594 60.7984 39.5617 61.0956 40.0475 61.0956V59.0956ZM40.7109 59.0832V20.7232H38.7109V59.0832H40.7109ZM40.7109 20.7232C40.7109 20.5215 40.7396 20.3797 40.7585 20.3229C40.7696 20.2893 40.761 20.3342 40.7029 20.4082C40.654 20.4705 40.4402 20.7109 40.0475 20.7109V18.7109C39.5617 18.7109 39.2594 19.0081 39.1299 19.173C38.9913 19.3496 38.9101 19.5429 38.8604 19.6925C38.7575 20.0023 38.7109 20.3668 38.7109 20.7232H40.7109ZM40.0475 20.7109C39.6547 20.7109 39.441 20.4705 39.392 20.4082C39.334 20.3342 39.3253 20.2893 39.3365 20.3229C39.3554 20.3797 39.384 20.5215 39.384 20.7232H41.384C41.384 20.3668 41.3374 20.0023 41.2345 19.6925C41.1848 19.5429 41.1037 19.3496 40.9651 19.173C40.8356 19.0081 40.5333 18.7109 40.0475 18.7109V20.7109ZM39.384 20.7232V59.0832H41.384V20.7232H39.384ZM39.384 59.0832C39.384 59.2841 39.3552 59.4257 39.3362 59.4827C39.325 59.5166 39.3335 59.4723 39.391 59.3989C39.4384 59.3385 39.6523 59.0956 40.0475 59.0956V61.0956C40.535 61.0956 40.8372 60.7959 40.965 60.6329C41.1029 60.4569 41.184 60.2642 41.2338 60.1148C41.3369 59.8052 41.384 59.4407 41.384 59.0832H39.384Z" fill="#023F6B" mask="url(#path-4-inside-1_5108_9203)"/>
  <path d="M49.8218 59.5975C49.8218 59.5976 49.8208 59.5974 49.8188 59.5965C49.8209 59.5969 49.8219 59.5973 49.8218 59.5975ZM49.8674 59.5221C49.8412 59.5616 49.8205 59.5809 49.8078 59.59C49.7952 59.5809 49.7745 59.5616 49.7482 59.5221C49.6881 59.4316 49.6348 59.2777 49.6348 59.0832V20.7232C49.6348 20.5288 49.6881 20.3749 49.7482 20.2844C49.7745 20.2449 49.7952 20.2256 49.8078 20.2165C49.8205 20.2256 49.8412 20.2449 49.8674 20.2844C49.9276 20.3749 49.9809 20.5288 49.9809 20.7232V59.0832C49.9809 59.2777 49.9276 59.4316 49.8674 59.5221ZM49.8218 20.209C49.8219 20.2091 49.8209 20.2096 49.8188 20.21C49.8208 20.2091 49.8218 20.2089 49.8218 20.209ZM49.7938 20.209C49.7939 20.2089 49.7949 20.2091 49.7969 20.21C49.7948 20.2096 49.7938 20.2091 49.7938 20.209ZM49.7969 59.5965C49.7949 59.5974 49.7939 59.5976 49.7938 59.5975C49.7938 59.5973 49.7948 59.5969 49.7969 59.5965Z" fill="#023F6B" stroke="#023F6B"/>
  <path d="M31.2987 65.4796C30.7329 65.4796 30.2891 64.4878 30.2891 63.224V17.9274C30.2891 16.6637 30.7329 15.6719 31.2987 15.6719C31.8645 15.6719 32.3083 16.6637 32.3083 17.9274V63.224C32.3083 64.4878 31.8627 65.4796 31.2987 65.4796Z" fill="#023F6B"/>
  <path d="M31.2987 65.4796C30.7329 65.4796 30.2891 64.4878 30.2891 63.224V17.9274C30.2891 16.6637 30.7329 15.6719 31.2987 15.6719C31.8645 15.6719 32.3083 16.6637 32.3083 17.9274V63.224C32.3083 64.4878 31.8627 65.4796 31.2987 65.4796Z" stroke="#023F6B"/>
  <path d="M35.6723 39.2305H25.5762V41.2497H35.6723V39.2305Z" fill="#023F6B"/>
  <path d="M119.674 66.0548L109.758 62.8913L104.858 54.3827C103.532 52.0919 100.996 50.6738 98.2862 50.6738H80.4148C77.6476 50.6738 75.1687 52.0919 73.8428 54.3827L68.7119 63.2731V63.3277C68.6543 63.3822 68.6543 63.4368 68.6543 63.4913V76.8542C68.6543 77.4542 69.1731 77.945 69.8073 77.945H74.5345C75.0534 80.454 77.417 82.3084 80.1842 82.3084C82.9514 82.3084 85.315 80.454 85.8339 77.945H103.359C103.878 80.454 106.242 82.3084 109.009 82.3084C111.776 82.3084 114.14 80.454 114.659 77.945H119.328C119.962 77.945 120.481 77.4542 120.481 76.8542V67.0911C120.481 66.6002 120.193 66.2184 119.674 66.0548ZM87.621 52.9101H98.2862C100.189 52.9101 101.918 53.8918 102.84 55.4736L106.991 62.7277H87.621V52.9101ZM75.8605 55.4736C76.7829 53.8918 78.5124 52.9101 80.4148 52.9101H85.315V62.7277H71.7097L75.8605 55.4736ZM74.4769 75.8179H70.9026V73.6362H75.5146C74.9957 74.2907 74.6498 74.9998 74.4769 75.8179ZM80.1266 80.1813C78.2241 80.1813 76.6676 78.7086 76.6676 76.9087C76.6676 75.1088 78.2241 73.6362 80.1266 73.6362C82.029 73.6362 83.5855 75.1088 83.5855 76.9087C83.5855 78.7086 82.029 80.1813 80.1266 80.1813ZM108.951 80.1813C107.049 80.1813 105.492 78.7086 105.492 76.9087C105.492 75.1088 107.049 73.6362 108.951 73.6362C110.854 73.6362 112.41 75.1088 112.41 76.9087C112.41 78.7086 110.854 80.1813 108.951 80.1813ZM118.175 75.8179H114.601C114.082 73.3089 111.718 71.4545 108.951 71.4545C106.184 71.4545 103.821 73.3089 103.302 75.8179H85.7762C85.2574 73.3089 82.8937 71.4545 80.1266 71.4545H70.9026V64.9094H108.778L118.175 67.8547V75.8179Z" fill="#023F6B"/>
  <path d="M77.4029 52.6914L69.5504 43.9414H63.9414" stroke="#023F6B" stroke-width="4"/>
  </g>
  <path d="M115 98V0" stroke="#FF6600" stroke-width="2"/>
  <defs>
  <clipPath id="clip0_5108_9203">
  <rect width="90" height="80" fill="white" transform="translate(0 9)"/>
  </clipPath>
  </defs>
</svg>