<svg width="116" height="98" viewBox="0 0 116 98" fill="none" xmlns="http://www.w3.org/2000/svg">
  <path d="M56.8151 74.0895C56.6346 74.0895 56.4629 74.0196 56.3362 73.8902C56.2078 73.7591 56.1367 73.5912 56.1367 73.4182C56.1367 73.2381 56.2095 73.0668 56.3414 72.9321L62.8586 66.362H33.7915C33.4185 66.362 33.1148 66.0578 33.1148 65.682C33.1148 65.3096 33.4185 65.0054 33.7915 65.0054H62.8621L56.1974 58.2849C56.0638 58.1521 55.9978 57.993 55.9978 57.8112C55.9978 57.6293 56.0672 57.458 56.1922 57.3339C56.3223 57.201 56.4872 57.1328 56.6693 57.1328C56.8498 57.1328 57.0181 57.2027 57.1413 57.3269L64.9598 65.2047C65.0483 65.3166 65.0813 65.3743 65.1004 65.4215C65.1368 65.5701 65.1594 65.6627 65.1594 65.6837L65.0813 65.9809L64.906 66.2344L57.2853 73.8954C57.1621 74.0196 56.9938 74.0895 56.8151 74.0895Z" fill="#023F6B"/>
  <path d="M11.7591 74.0893C11.5804 74.0893 11.4121 74.0194 11.2854 73.8918L3.61437 66.1608C3.55364 66.0996 3.50506 66.0297 3.48077 65.9597L3.40616 65.6048C3.41657 65.6048 3.44433 65.5122 3.47383 65.4318C3.49986 65.3566 3.53803 65.2971 3.61264 65.215L11.4329 57.3267C11.5578 57.2008 11.7244 57.1309 11.9048 57.1309C12.0853 57.1309 12.2553 57.2008 12.3785 57.3267C12.5069 57.456 12.5763 57.6274 12.5763 57.8092C12.5763 57.9928 12.5104 58.1519 12.3803 58.2795L5.70868 65.0052H34.7826C35.1556 65.0052 35.4593 65.3076 35.4593 65.6783C35.4593 66.0541 35.1556 66.3618 34.7826 66.3618H5.71736L12.2397 72.9354C12.3681 73.0666 12.4393 73.2379 12.4393 73.418C12.4393 73.591 12.3681 73.7589 12.2397 73.89C12.1113 74.0194 11.9413 74.0893 11.7591 74.0893Z" fill="#023F6B"/>
  <path d="M2.71721 82.8664C2.71721 83.4905 2.10645 83.9992 1.35861 83.9992C0.610765 83.9992 0 83.4905 0 82.8664V46.6924C0 46.0613 0.610765 45.5508 1.35861 45.5508C2.10645 45.5508 2.71721 46.0613 2.71721 46.6924V82.8664Z" fill="#023F6B"/>
  <path d="M68.5686 82.8664C68.5686 83.4905 67.9578 83.9992 67.2099 83.9992C66.462 83.9992 65.8513 83.4905 65.8513 82.8664V46.6924C65.8513 46.0613 66.462 45.5508 67.2099 45.5508C67.9578 45.5508 68.5686 46.0613 68.5686 46.6924V82.8664Z" fill="#023F6B"/>
  <path d="M44.6677 39.8063C44.4872 39.8063 44.3155 39.7364 44.1888 39.607C44.0604 39.4759 43.9893 39.3081 43.9893 39.135C43.9893 38.9549 44.0621 38.7836 44.194 38.6489L50.7112 32.0789H21.6442C21.2711 32.0789 20.9675 31.7747 20.9675 31.3988C20.9675 31.0264 21.2711 30.7222 21.6442 30.7222H50.7146L44.05 24.0017C43.9164 23.8689 43.8505 23.7098 43.8505 23.5279C43.8505 23.3461 43.9199 23.1748 44.0448 23.0507C44.1749 22.9178 44.3398 22.8496 44.5219 22.8496C44.7024 22.8496 44.8707 22.9195 44.9939 23.0437L52.8124 30.9215C52.8888 31.0229 52.9321 31.0876 52.953 31.1383C52.9894 31.2851 53.012 31.3778 53.012 31.4005L52.9339 31.6977L52.7586 31.9512L45.1379 39.6123C45.0147 39.7364 44.8464 39.8063 44.6677 39.8063Z" fill="#023F6B"/>
  <path d="M23.903 39.8061C23.7243 39.8061 23.556 39.7362 23.4293 39.6085L15.7582 31.8776C15.6975 31.8164 15.6489 31.7465 15.6246 31.6765L15.55 31.3216C15.5604 31.3216 15.5882 31.229 15.6177 31.1486C15.6437 31.0734 15.6819 31.0139 15.7565 30.9318L23.5768 23.0435C23.7017 22.9176 23.8683 22.8477 24.0488 22.8477C24.2292 22.8477 24.3992 22.9176 24.5224 23.0435C24.6508 23.1728 24.7203 23.3442 24.7203 23.526C24.7203 23.7096 24.6543 23.8687 24.5242 23.9963L17.8526 30.722H46.9266C47.2997 30.722 47.6033 31.0244 47.6033 31.3951C47.6033 31.7709 47.2997 32.0786 46.9266 32.0786H17.8612L24.3836 38.6522C24.512 38.7834 24.5832 38.9547 24.5832 39.1348C24.5832 39.3078 24.512 39.4757 24.3836 39.6068C24.2552 39.7362 24.0852 39.8061 23.903 39.8061Z" fill="#023F6B"/>
  <path d="M14.8612 49.7316C14.8612 50.3278 14.2504 50.8156 13.5026 50.8156C12.7547 50.8156 12.144 50.3295 12.144 49.7316V15.0927C12.144 14.4895 12.7547 14 13.5026 14C14.2504 14 14.8612 14.4895 14.8612 15.0927V49.7316Z" fill="#023F6B"/>
  <path d="M56.4213 49.7316C56.4213 50.3278 55.8105 50.8156 55.0626 50.8156C54.3148 50.8156 53.704 50.3278 53.704 49.7316V15.0927C53.7022 14.4895 54.313 14 55.0609 14C55.8088 14 56.4196 14.4895 56.4196 15.0927V49.7316H56.4213Z" fill="#023F6B"/>
  <path d="M115 98V0" stroke="#FF6600" stroke-width="2"/>
</svg>