<svg width="138" height="104" viewBox="0 0 138 104" fill="none" xmlns="http://www.w3.org/2000/svg">
<g clip-path="url(#clip0_4961_6085)">
<path d="M25.4716 67C21.9485 67 18.7683 64.7877 17.5583 61.4938L2 31.6568L88.1099 0.506173C89.0391 0.17037 90.0056 0 90.987 0C94.5176 0 97.6953 2.21481 98.9028 5.50864L107.492 28.9605C109.08 33.2963 106.821 38.1062 102.463 39.684L28.3488 66.4914C27.422 66.8296 26.453 67 25.4716 67ZM20.7386 60.1062C21.5112 62.1728 23.4293 63.5259 25.5412 63.5259C26.0977 63.5259 26.6419 63.4296 27.1611 63.2444L101.273 36.437C103.83 35.5111 105.156 32.6864 104.225 30.1407L95.6331 6.69136C94.9399 4.79753 92.997 3.47654 90.91 3.47654C90.3534 3.47654 89.8143 3.57037 89.3 3.75556L6.90452 33.558L20.7386 60.1062Z" fill="white"/>
<path d="M25.5968 66C22.3053 66 19.3368 63.9164 18.2075 60.8182L3 31.4262L87.9235 0.476454C88.7914 0.160464 89.6963 0 90.611 0C93.9074 0 96.8759 2.08356 98.0002 5.18422L106.526 28.6317C108.008 32.7124 105.897 37.2375 101.829 38.7212L28.2843 65.5235C27.4164 65.8395 26.5115 66 25.5968 66ZM6.47643 32.7865L20.4611 59.8283C21.5311 62.7315 24.6895 64.2003 27.441 63.203L100.986 36.4006C103.78 35.381 105.227 32.2754 104.211 29.4735L95.6851 6.02603C94.6989 3.30555 91.5158 1.79719 88.7667 2.79454L6.47643 32.7865Z" fill="white"/>
<path d="M3 40.7547L10.1483 38L10.6457 39.4479L4.86109 41.6763L10.835 59.0284L18.5026 56.0734L19 57.5214L9.96391 61L3 40.7547Z" fill="white"/>
<path d="M0 47.69L4.97676 46L5.53366 47.4291L2.08633 48.5971L4.99849 56.0515L8.4431 54.8809L9 56.31L4.02053 58L0 47.69Z" fill="white"/>
<path d="M132.082 104C128.177 104 125 100.902 125 97.096V73.9065C125 70.0982 128.177 67 132.082 67H138V104H132.082ZM132.082 70.4756C130.142 70.4756 128.564 72.0148 128.564 73.904V97.0935C128.564 98.9852 130.142 100.522 132.082 100.522H134.436V70.4756H132.082Z" fill="white"/>
<path d="M137 104H132.034C128.706 104 126 101.126 126 97.5938V74.4087C126 70.8767 128.706 68 132.034 68H137V104ZM132.034 70.4846C129.996 70.4846 128.337 72.2443 128.337 74.4112V97.5962C128.337 99.7606 129.996 101.52 132.034 101.52H134.663V70.4846H132.034Z" fill="white"/>
<path d="M76.5 99C69.0577 99 63 92.9447 63 85.5C63 78.0553 69.0577 72 76.5 72C83.9423 72 90 78.0553 90 85.5C90 92.9447 83.9423 99 76.5 99ZM76.5 75.4332C70.9471 75.4332 66.4332 79.9495 66.4332 85.5C66.4332 91.0505 70.9495 95.5668 76.5 95.5668C82.0505 95.5668 86.5668 91.0505 86.5668 85.5C86.5668 79.9495 82.0505 75.4332 76.5 75.4332Z" fill="white"/>
<path d="M76 99C68.8327 99 63 93.1697 63 86C63 78.8303 68.8327 73 76 73C83.1673 73 89 78.8303 89 86C89 93.1697 83.1648 99 76 99ZM76 75.4511C70.182 75.4511 65.4487 80.1844 65.4487 86.0025C65.4487 91.8205 70.182 96.5538 76 96.5538C81.818 96.5538 86.5513 91.8205 86.5513 86.0025C86.5513 80.1844 81.818 75.4511 76 75.4511Z" fill="white"/>
<path d="M76.0012 91C72.6927 91 70 88.3092 70 85C70 81.6908 72.6927 79 76.0012 79C79.3098 79 82 81.6908 82 85C82 88.3092 79.3098 91 76.0012 91ZM76.0012 80.476C73.5056 80.476 71.4781 82.5064 71.4781 84.9975C71.4781 87.4887 73.5056 89.5191 76.0012 89.5191C78.4944 89.5191 80.5219 87.4887 80.5219 84.9975C80.5219 82.5064 78.4944 80.476 76.0012 80.476Z" fill="white"/>
<path d="M126 79H88V81H126V79Z" fill="white"/>
<path d="M126 90H88V91H126V90Z" fill="white"/>
<path d="M74.5755 73.1281L75.9219 72.5078L65.7348 50.4673L64.3884 51.0876L74.5755 73.1281Z" fill="white"/>
<path d="M65.0013 77.5461L66.3477 76.9258L56.1585 54.8809L54.8121 55.5011L65.0013 77.5461Z" fill="white"/>
<path d="M105.4 34.0156L105.414 32.5352L5.35499 31.5562L5.34046 33.0366L105.4 34.0156Z" fill="white"/>
</g>
<defs>
<clipPath id="clip0_4961_6085">
<rect width="138" height="104" fill="white"/>
</clipPath>
</defs>
</svg>
