<svg width="116" height="98" viewBox="0 0 116 98" fill="none" xmlns="http://www.w3.org/2000/svg">
<path d="M16.2091 58.7309C13.9771 58.7309 11.9624 57.3199 11.1958 55.2192L1.33929 36.1899L55.8917 16.3228C56.4804 16.1087 57.0927 16 57.7144 16C59.9511 16 61.9643 17.4126 62.7293 19.5133L68.1706 34.4703C69.1764 37.2355 67.7457 40.3032 64.9848 41.3094L18.0318 58.4065C17.4447 58.6222 16.8308 58.7309 16.2091 58.7309ZM13.2106 54.3342C13.7001 55.6523 14.9152 56.5152 16.2531 56.5152C16.6057 56.5152 16.9504 56.4538 17.2794 56.3357L64.2309 39.2386C65.8505 38.6481 66.6911 36.8466 66.1008 35.223L60.6578 20.2676C60.2187 19.0597 58.9878 18.2173 57.6656 18.2173C57.313 18.2173 56.9715 18.2771 56.6457 18.3952L4.44641 37.4025L13.2106 54.3342Z" fill="#023F6B"/>
<path d="M16.2071 58.4154C14.1058 58.4154 12.2107 57.0864 11.4897 55.11L1.78119 36.361L55.9968 16.6184C56.5508 16.4168 57.1285 16.3145 57.7124 16.3145C59.8169 16.3145 61.712 17.6435 62.4298 19.6214L67.8727 34.5784C68.8187 37.1815 67.4714 40.068 64.8742 41.0144L17.9228 58.1115C17.3687 58.3131 16.7911 58.4154 16.2071 58.4154ZM4.00056 37.2287L12.9284 54.4786C13.6115 56.3305 15.6278 57.2675 17.3845 56.6313L64.3359 39.5342C66.1193 38.8838 67.0432 36.9028 66.3947 35.1154L60.9518 20.1584C60.3222 18.423 58.2901 17.4609 56.5351 18.0971L4.00056 37.2287Z" fill="#023F6B"/>
<path d="M1.46112 42.221L6.09819 40.5312L6.42086 41.4194L2.66839 42.7863L6.54363 53.43L11.5175 51.6175L11.8402 52.5057L5.97856 54.6395L1.46112 42.221Z" fill="#023F6B"/>
<path d="M0 46.73L2.88361 45.6797L3.20628 46.5678L1.20885 47.2938L2.8962 51.9267L4.89206 51.1992L5.21473 52.0874L2.32955 53.1377L0 46.73Z" fill="#023F6B"/>
<path d="M83.8407 82.3783C81.4262 82.3783 79.4618 80.413 79.4618 77.9989V63.2892C79.4618 60.8735 81.4262 58.9082 83.8407 58.9082H87.5003V82.3783H83.8407ZM83.8407 61.1129C82.6413 61.1129 81.6654 62.0892 81.6654 63.2876V77.9973C81.6654 79.1973 82.6413 80.1721 83.8407 80.1721H85.2967V61.1129H83.8407Z" fill="#023F6B"/>
<path d="M87.1849 82.0629H83.8401C81.5987 82.0629 79.776 80.2393 79.776 77.9984V63.2887C79.776 61.0478 81.5987 59.2227 83.8401 59.2227H87.1849V82.0629ZM83.8401 60.799C82.4676 60.799 81.35 61.9155 81.35 63.2902V78C81.35 79.3732 82.4676 80.4897 83.8401 80.4897H85.6109V60.799H83.8401Z" fill="#023F6B"/>
<path d="M48.3654 79.3155C43.5851 79.3155 39.6942 75.4242 39.6942 70.6402C39.6942 65.8561 43.5851 61.9648 48.3654 61.9648C53.1457 61.9648 57.0367 65.8561 57.0367 70.6402C57.0367 75.4242 53.1457 79.3155 48.3654 79.3155ZM48.3654 64.1711C44.7987 64.1711 41.8994 67.0733 41.8994 70.6402C41.8994 74.207 44.8003 77.1092 48.3654 77.1092C51.9306 77.1092 54.8315 74.207 54.8315 70.6402C54.8315 67.0733 51.9306 64.1711 48.3654 64.1711Z" fill="#023F6B"/>
<path d="M48.3669 79.002C43.7597 79.002 40.0104 75.2525 40.0104 70.6416C40.0104 66.0307 43.7597 62.2812 48.3669 62.2812C52.974 62.2812 56.7233 66.0307 56.7233 70.6416C56.7233 75.2525 52.9724 79.002 48.3669 79.002ZM48.3669 63.8576C44.627 63.8576 41.5844 66.9016 41.5844 70.6432C41.5844 74.3848 44.627 77.4288 48.3669 77.4288C52.1067 77.4288 55.1493 74.3848 55.1493 70.6432C55.1493 66.9016 52.1067 63.8576 48.3669 63.8576Z" fill="#023F6B"/>
<path d="M48.3451 74.3214C46.2312 74.3214 44.5107 72.6018 44.5107 70.4869C44.5107 68.372 46.2312 66.6523 48.3451 66.6523C50.459 66.6523 52.1778 68.372 52.1778 70.4869C52.1778 72.6018 50.459 74.3214 48.3451 74.3214ZM48.3451 67.5956C46.7506 67.5956 45.4552 68.8932 45.4552 70.4853C45.4552 72.0774 46.7506 73.375 48.3451 73.375C49.938 73.375 51.2334 72.0774 51.2334 70.4853C51.2334 68.8932 49.938 67.5956 48.3451 67.5956Z" fill="#023F6B"/>
<path d="M80.142 66.6523H55.9871V67.5972H80.142V66.6523Z" fill="#023F6B"/>
<path d="M80.142 73.373H55.9871V74.3179H80.142V73.373Z" fill="#023F6B"/>
<path d="M47.2755 62.6732L48.1331 62.2773L41.6448 48.2102L40.7872 48.6061L47.2755 62.6732Z" fill="#023F6B"/>
<path d="M41.1758 65.4916L42.0333 65.0957L35.5437 51.0257L34.6862 51.4216L41.1758 65.4916Z" fill="#023F6B"/>
<path d="M66.9058 37.7105L66.915 36.7656L3.1861 36.1408L3.17684 37.0856L66.9058 37.7105Z" fill="#023F6B"/>
<path d="M115 98V0" stroke="#FF6600" stroke-width="2"/>
</svg>
