<svg width="263" height="81" viewBox="0 0 263 81" fill="none" xmlns="http://www.w3.org/2000/svg">
<path d="M93.3781 25.9559H91.3756V35.2343C91.3756 36.4358 91.1086 37.3703 90.5746 37.9043C90.0406 38.5051 89.3731 38.7721 88.5053 38.7721C87.5708 38.7721 86.8365 38.4383 86.3693 37.8375C85.8353 37.2368 85.635 36.369 85.635 35.1675V13.073C85.5683 11.8714 85.8353 10.9369 86.436 10.4029C86.97 9.80216 87.9045 9.53516 89.1061 9.53516H98.5847C99.9197 9.53516 100.988 9.60191 101.922 9.66866C102.857 9.80216 103.658 10.0024 104.459 10.3362C105.393 10.7367 106.128 11.2707 106.862 11.9382C107.529 12.6724 108.063 13.4735 108.464 14.408C108.798 15.3425 108.998 16.3437 108.998 17.345C108.998 19.481 108.397 21.2166 107.196 22.4848C105.994 23.7531 104.125 24.6876 101.722 25.2216C102.723 25.7556 103.725 26.5566 104.659 27.6914C105.594 28.7594 106.461 29.8942 107.196 31.0957C107.93 32.2972 108.531 33.432 108.931 34.3665C109.332 35.3678 109.532 36.0353 109.532 36.369C109.532 36.7695 109.398 37.1033 109.198 37.5038C108.931 37.9043 108.597 38.1713 108.197 38.3716C107.796 38.5718 107.262 38.7053 106.728 38.7053C106.061 38.7053 105.527 38.5718 105.06 38.238C104.592 37.9043 104.259 37.5705 103.925 37.0365C103.591 36.5693 103.191 35.835 102.59 34.9673L100.253 31.0957C99.3857 29.6939 98.6514 28.5592 97.9839 27.8249C97.3164 27.0906 96.6489 26.5566 95.9814 26.2896C95.3139 26.0894 94.4461 25.9559 93.3781 25.9559ZM96.7157 13.874H91.3756V21.8173H96.5822C97.9839 21.8173 99.1187 21.6838 100.12 21.4836C101.054 21.2166 101.789 20.8161 102.323 20.2153C102.857 19.6145 103.057 18.8135 103.057 17.8123C103.057 17.0113 102.857 16.277 102.456 15.6762C102.056 15.0755 101.522 14.6082 100.787 14.3412C100.053 14.0742 98.7182 13.874 96.7157 13.874Z" fill="#003E6A"/>
<path d="M135.496 14.0075H122.413V21.0831H134.495C135.362 21.0831 136.03 21.2833 136.497 21.6838C136.964 22.0843 137.165 22.6183 137.165 23.2858C137.165 23.9534 136.964 24.4874 136.497 24.8879C136.097 25.2884 135.429 25.4886 134.495 25.4886H122.413V33.699H135.963C136.898 33.699 137.565 33.8992 138.033 34.3665C138.5 34.767 138.7 35.3678 138.7 36.0353C138.7 36.7028 138.5 37.2368 138.033 37.704C137.565 38.1045 136.898 38.3716 135.963 38.3716H120.143C118.875 38.3716 117.94 38.1045 117.406 37.5038C116.872 36.9698 116.605 36.0353 116.605 34.767V13.073C116.605 12.2052 116.739 11.5377 117.006 11.0037C117.273 10.4697 117.673 10.0692 118.141 9.86891C118.675 9.60191 119.342 9.53516 120.143 9.53516H135.496C136.43 9.53516 137.098 9.73541 137.565 10.1359C138.033 10.5364 138.233 11.0704 138.233 11.7379C138.233 12.4054 138.033 12.9395 137.565 13.34C137.098 13.8072 136.43 14.0075 135.496 14.0075Z" fill="#003E6A"/>
<path d="M155.188 33.966L150.582 15.6762V35.568C150.582 36.636 150.315 37.5038 149.848 38.0378C149.381 38.5718 148.713 38.8388 147.912 38.8388C147.111 38.8388 146.51 38.5718 145.976 38.0378C145.509 37.5038 145.242 36.636 145.242 35.568V12.7392C145.242 11.4709 145.576 10.6032 146.243 10.2027C146.911 9.73541 147.779 9.53516 148.913 9.53516H150.716C151.784 9.53516 152.585 9.60191 153.052 9.80216C153.519 10.0024 153.92 10.3362 154.12 10.8702C154.32 11.4042 154.654 12.2052 154.921 13.34L159.126 29.0932L163.332 13.34C163.599 12.2052 163.932 11.3374 164.133 10.8702C164.4 10.3362 164.733 10.0024 165.201 9.80216C165.668 9.60191 166.469 9.53516 167.537 9.53516H169.339C170.474 9.53516 171.342 9.73541 172.009 10.2027C172.677 10.6699 173.011 11.4709 173.011 12.7392V35.5013C173.011 36.5693 172.744 37.437 172.276 37.971C171.809 38.505 171.142 38.7721 170.341 38.7721C169.54 38.7721 168.939 38.505 168.472 37.971C168.004 37.437 167.737 36.5693 167.737 35.5013V15.6762L163.131 34.0327C162.798 35.2343 162.597 36.102 162.397 36.636C162.197 37.17 161.863 37.704 161.329 38.1713C160.795 38.6385 160.128 38.8388 159.193 38.8388C158.526 38.8388 157.925 38.7053 157.458 38.3715C156.99 38.1045 156.59 37.704 156.39 37.2368C156.123 36.7695 155.922 36.3023 155.789 35.7015C155.522 35.1675 155.322 34.5667 155.188 33.966Z" fill="#003E6A"/>
<path d="M199.981 14.0075H186.831V21.0831H198.913C199.78 21.0831 200.448 21.2833 200.915 21.6838C201.382 22.0843 201.583 22.6183 201.583 23.2858C201.583 23.9534 201.382 24.4874 200.915 24.8879C200.515 25.2884 199.847 25.4886 198.913 25.4886H186.831V33.699H200.381C201.316 33.699 201.983 33.8992 202.45 34.3665C202.918 34.767 203.118 35.3678 203.118 36.0353C203.118 36.7028 202.918 37.2368 202.45 37.704C201.983 38.1045 201.316 38.3716 200.381 38.3716H184.561C183.293 38.3716 182.358 38.1045 181.824 37.5038C181.29 36.9698 181.023 36.0353 181.023 34.767V13.073C181.023 12.2052 181.157 11.5377 181.424 11.0037C181.691 10.4697 182.091 10.0692 182.559 9.86891C183.093 9.60191 183.76 9.53516 184.561 9.53516H199.914C200.848 9.53516 201.516 9.73541 201.983 10.1359C202.45 10.5364 202.651 11.0704 202.651 11.7379C202.651 12.4054 202.45 12.9395 201.983 13.34C201.649 13.8072 200.915 14.0075 199.981 14.0075Z" fill="#003E6A"/>
<path d="M213.597 9.53516H221.206C223.209 9.53516 224.878 9.73541 226.279 10.0692C227.681 10.4697 228.949 11.1372 230.151 12.1384C233.155 14.675 234.623 18.6133 234.623 23.8199C234.623 25.5554 234.49 27.0906 234.156 28.5592C233.889 29.9609 233.422 31.296 232.754 32.4307C232.153 33.5655 231.352 34.5667 230.351 35.5013C229.55 36.1688 228.749 36.7695 227.815 37.17C226.88 37.5705 225.946 37.9043 224.878 38.0378C223.81 38.2381 222.608 38.3048 221.34 38.3048H213.73C212.662 38.3048 211.861 38.1713 211.327 37.8375C210.793 37.5038 210.459 37.0365 210.259 36.5025C210.126 35.9018 209.992 35.1675 209.992 34.233V13.073C209.992 11.8047 210.259 10.9369 210.86 10.3362C211.461 9.80216 212.328 9.53516 213.597 9.53516ZM215.866 14.141V33.6322H220.272C221.206 33.6322 222.007 33.6322 222.541 33.5655C223.075 33.4987 223.676 33.3652 224.277 33.165C224.878 32.9647 225.345 32.631 225.812 32.2972C227.748 30.6284 228.749 27.8249 228.749 23.7531C228.749 20.8828 228.349 18.8135 227.481 17.345C226.613 15.9432 225.545 15.0087 224.344 14.675C223.075 14.2745 221.54 14.0742 219.805 14.0742H215.866V14.141Z" fill="#003E6A"/>
<path d="M248.24 35.2344V26.1562L241.232 15.2758C240.631 14.2746 240.164 13.5403 239.897 13.0063C239.63 12.4723 239.496 12.0051 239.496 11.6045C239.496 10.937 239.763 10.3363 240.297 9.86903C240.831 9.40177 241.432 9.13477 242.233 9.13477C243.034 9.13477 243.635 9.33502 244.035 9.80227C244.436 10.2695 245.036 11.1373 245.904 12.4723L251.244 21.1499L256.651 12.4723C256.985 11.9383 257.252 11.471 257.452 11.1373C257.652 10.8035 257.919 10.403 258.186 10.136C258.453 9.80227 258.72 9.60202 259.054 9.40177C259.388 9.20152 259.788 9.13477 260.256 9.13477C260.99 9.13477 261.591 9.40177 262.058 9.86903C262.525 10.3363 262.792 10.8703 262.792 11.5378C262.792 12.0718 262.659 12.5391 262.392 13.0731C262.125 13.6071 261.724 14.2746 261.123 15.2091L253.914 26.223V35.3679C253.914 36.5694 253.647 37.4372 253.113 38.0379C252.579 38.6387 251.845 38.9057 251.044 38.9057C250.176 38.9057 249.509 38.6387 248.975 38.0379C248.507 37.3704 248.24 36.4359 248.24 35.2344Z" fill="#003E6A"/>
<path d="M97.1515 50.0721C95.5742 49.5463 94.7198 49.3491 93.1424 49.3491C91.4336 49.3491 89.3962 49.8749 89.3962 51.7809C89.3962 55.2642 98.5974 54.4755 98.5974 60.3906C98.5974 64.2682 95.0484 65.7799 90.7764 65.7799C89.2648 65.7799 87.8189 65.3855 86.3729 65.0569L86.7016 62.6252C87.7531 62.9538 89.5934 63.4796 91.1707 63.4796C92.9452 63.4796 95.377 62.6252 95.377 60.522C95.377 56.5129 86.1758 57.6302 86.1758 51.978C86.1758 48.7576 89.199 47.0488 93.0767 47.0488C94.5226 47.0488 96.1657 47.246 97.6773 47.7061L97.1515 50.0721Z" fill="#003E6A"/>
<path d="M114.829 64.8608C113.712 65.1894 112.463 65.7152 109.9 65.7152C104.313 65.7152 101.75 62.8891 101.75 58.5514C101.75 54.6737 104.642 51.8477 109.111 51.8477C114.369 51.8477 116.012 55.0681 116.012 59.2743H104.839C104.839 61.9033 107.271 63.6778 110.031 63.6778C111.937 63.6778 114.172 62.8234 114.895 62.3633V64.8608H114.829ZM112.989 57.5655C112.989 55.5281 111.543 53.8851 109.111 53.8851C106.285 53.8851 105.102 55.8568 104.905 57.5655H112.989Z" fill="#003E6A"/>
<path d="M120.613 45.9961H123.505V65.3843H120.613V45.9961Z" fill="#003E6A"/>
<path d="M131.001 54.2126H127.32V52.2409H131.001V51.0579C131.001 47.8375 131.987 45.7344 136.259 45.7344C136.982 45.7344 137.639 45.8001 138.23 45.8658L138.099 47.8375C137.77 47.7061 137.179 47.7061 136.719 47.7061C134.221 47.7061 133.893 49.0205 133.893 50.8608V52.3067H138.033V54.2784H133.893V65.517H131.001V54.2126Z" fill="#003E6A"/>
<path d="M160.312 50.0721C158.735 49.5463 157.881 49.3491 156.303 49.3491C154.594 49.3491 152.557 49.8749 152.557 51.7809C152.557 55.2642 161.824 54.4755 161.824 60.3906C161.824 64.2682 158.275 65.7799 154.003 65.7799C152.491 65.7799 151.045 65.3855 149.6 65.0569L149.928 62.6252C150.98 62.9538 152.82 63.4796 154.397 63.4796C156.172 63.4796 158.604 62.6252 158.604 60.522C158.604 56.5129 149.402 57.6302 149.402 51.978C149.402 48.7576 152.426 47.0488 156.303 47.0488C157.749 47.0488 159.392 47.246 160.904 47.7061L160.312 50.0721Z" fill="#003E6A"/>
<path d="M174.311 54.2133H170.171V61.4428C170.171 62.9544 171.288 63.8088 172.602 63.8088C173.523 63.8088 174.114 63.5459 174.574 63.3488V65.3862C173.917 65.5176 173.062 65.7805 172.142 65.7805C169.185 65.7805 167.279 64.5975 167.279 61.9686V54.2133H163.664V52.2416H167.213V49.2184L170.105 48.4297V52.2416H174.245V54.2133H174.311Z" fill="#003E6A"/>
<path d="M185.155 51.9121C189.953 51.9121 193.107 54.8039 193.107 58.813C193.107 62.5592 189.821 65.7139 185.155 65.7139C180.423 65.7139 177.137 62.5592 177.137 58.813C177.202 54.8039 180.357 51.9121 185.155 51.9121ZM185.155 63.7422C188.572 63.7422 190.018 61.179 190.018 58.813C190.018 56.3155 188.178 53.8838 185.155 53.8838C182.066 53.8838 180.226 56.3155 180.226 58.813C180.226 61.179 181.737 63.7422 185.155 63.7422Z" fill="#003E6A"/>
<path d="M197.312 52.2407H200.007V54.2781H200.073C200.862 52.898 202.505 51.9121 204.148 51.9121C205.002 51.9121 205.462 51.9778 206.054 52.1093V54.2781C205.528 54.081 204.936 54.0152 204.476 54.0152C201.913 54.0152 200.204 56.0527 200.204 59.4045V65.3853H197.312V52.2407Z" fill="#003E6A"/>
<path d="M210.325 53.1608C211.771 52.4379 213.48 51.9121 215.517 51.9121C219.987 51.9121 221.827 53.7524 221.827 57.3671V62.8221C221.827 64.3337 221.893 64.991 221.958 65.3853H219.264V63.6765H219.198C218.541 64.4652 216.963 65.7139 214.334 65.7139C210.917 65.7139 208.551 64.4652 208.551 61.5734C208.551 58.2872 212.888 57.2357 215.846 57.2357C216.963 57.2357 217.752 57.2357 218.935 57.3014C218.935 55.0011 217.949 53.8838 215.057 53.8838C213.414 53.8838 211.64 54.4096 210.522 55.1983L210.325 53.1608ZM218.935 59.1416C218.343 59.1416 217.686 59.0759 217.095 59.0759C215.517 59.0759 211.64 59.2731 211.64 61.6391C211.64 63.0193 213.217 63.808 214.532 63.808C217.423 63.808 218.869 62.2963 218.869 60.3246V59.1416H218.935Z" fill="#003E6A"/>
<path d="M240.888 64.8608C240.888 68.8699 238.456 71.1702 232.804 71.1702C231.161 71.1702 229.715 70.973 227.152 70.2501L227.48 68.0155C229.715 68.8699 231.029 69.1985 233.133 69.1985C236.156 69.1985 237.996 67.4897 237.996 64.6636V63.3492H237.93C236.682 64.7293 234.644 65.3866 232.672 65.3866C228.203 65.3866 225.969 62.2976 225.969 58.88C225.969 55.4624 228.269 51.8477 233.001 51.8477C235.761 51.8477 237.339 52.7021 238.193 54.148H238.259V52.1763H240.954V64.8608H240.888ZM237.996 58.9457C237.996 56.1854 236.484 53.8851 233.395 53.8851C230.504 53.8851 229.058 56.5797 229.058 58.8143C229.058 61.3118 230.701 63.4806 233.395 63.4806C236.156 63.4806 237.996 61.4432 237.996 58.9457Z" fill="#003E6A"/>
<path d="M258.173 64.8608C257.055 65.1894 255.807 65.7152 253.243 65.7152C247.657 65.7152 245.094 62.8891 245.094 58.5514C245.094 54.6737 247.986 51.8477 252.455 51.8477C257.713 51.8477 259.356 55.0681 259.356 59.2743H248.183C248.183 61.9033 250.614 63.6778 253.375 63.6778C255.281 63.6778 257.515 62.8234 258.238 62.3633V64.8608H258.173ZM256.267 57.5655C256.267 55.5281 254.821 53.8851 252.389 53.8851C249.563 53.8851 248.38 55.8568 248.183 57.5655H256.267Z" fill="#003E6A"/>
<path fill-rule="evenodd" clip-rule="evenodd" d="M25.2736 6.61533e-05L0 18.6506V58.024L25.2737 80.5231L69.3555 61.5404V16.5333L25.2737 0H25.2736V6.61533e-05ZM26.75 6.06641C27.8546 6.06641 28.75 6.96184 28.75 8.06641L28.75 73.0074C28.75 74.112 27.8546 75.0074 26.75 75.0074C25.6454 75.0074 24.75 74.112 24.75 73.0074L24.75 8.06641C24.75 6.96184 25.6454 6.06641 26.75 6.06641ZM52.2422 17.2959C52.2422 16.8817 51.9064 16.5459 51.4922 16.5459C51.078 16.5459 50.7422 16.8817 50.7422 17.2959L50.7422 63.2273C50.7422 63.6415 51.078 63.9773 51.4922 63.9773C51.9064 63.9773 52.2422 63.6415 52.2422 63.2273L52.2422 17.2959ZM47.9844 38.0557L49.639 38.6072V41.9164L47.9844 42.4679V38.0557ZM53.4976 39.434L52.3945 39.1582V41.6401L53.4976 41.3643V39.434Z" fill="#FF6600"/>
</svg>
