<svg width="116" height="98" viewBox="0 0 116 98" fill="none" xmlns="http://www.w3.org/2000/svg">
  <path d="M35.1351 78.2571C18.7337 78.2571 5.39062 65.0444 5.39062 48.8015C5.39062 32.5586 18.7337 19.3477 35.1351 19.3477C46.4299 19.3477 56.6133 25.5551 61.7058 35.5473C63.0532 38.1916 63.9847 41.0124 64.4758 43.9335C64.4968 44.0616 64.4671 44.1896 64.3919 44.2952C64.315 44.4008 64.2032 44.4717 64.0721 44.4925C64.0669 44.4925 64.0599 44.4925 64.0529 44.4925C63.7453 44.4925 63.5443 44.3194 63.5059 44.0927C63.0305 41.2667 62.1288 38.5394 60.8268 35.9851C55.9002 26.3235 46.0559 20.322 35.1333 20.322C19.2737 20.322 6.37104 33.0986 6.37104 48.8033C6.37104 64.508 19.2737 77.2846 35.1333 77.2846C37.7687 77.2846 40.3797 76.9315 42.891 76.2376C42.912 76.2359 42.9312 76.2359 42.9504 76.2359C43.265 76.2359 43.4415 76.3778 43.4974 76.575C43.5341 76.6996 43.5166 76.8312 43.452 76.9454C43.3873 77.0579 43.2842 77.1392 43.1584 77.1738C40.5597 77.892 37.8596 78.2571 35.1351 78.2571Z" fill="#023F6B"/>
  <path d="M35.1428 83.6025C15.7652 83.6025 0 67.9913 0 48.8013C0 29.6113 15.7652 14 35.1428 14C48.4893 14 60.5182 21.3341 66.5352 33.1398C68.1727 36.3517 69.2895 39.7834 69.8557 43.3397C69.9431 43.8882 69.5638 44.4022 69.0116 44.4887C68.4646 44.5787 67.9386 44.2015 67.8512 43.6529C67.3181 40.3026 66.2643 37.0716 64.7229 34.0466C59.0519 22.9227 47.7186 16.0126 35.1428 16.0126C16.8837 16.0126 2.03073 30.7223 2.03073 48.803C2.03073 66.8837 16.8855 81.5934 35.1428 81.5934C38.8338 81.5934 42.4566 80.9981 45.9099 79.8213C46.4411 79.6396 47.0178 79.9199 47.2013 80.4443C47.3831 80.9704 47.1 81.5415 46.5705 81.7232C42.904 82.9691 39.0592 83.6025 35.1428 83.6025Z" fill="#023F6B"/>
  <path d="M70.4814 77.3073H67.4353C66.8743 77.3073 66.4199 76.9612 66.4199 76.5355C66.4199 76.1098 66.8743 75.7637 67.4353 75.7637H70.4814C71.0424 75.7637 71.4968 76.1098 71.4968 76.5355C71.4968 76.9612 71.0424 77.3073 70.4814 77.3073Z" fill="#023F6B"/>
  <path d="M78.0583 77.3073H74.2712C73.7102 77.3073 73.2559 76.9612 73.2559 76.5355C73.2559 76.1098 73.7102 75.7637 74.2712 75.7637H78.0583C78.6193 75.7637 79.0737 76.1098 79.0737 76.5355C79.0737 76.9612 78.6176 77.3073 78.0583 77.3073Z" fill="#023F6B"/>
  <path d="M84.8916 77.3073H81.8455C81.2845 77.3073 80.8301 76.9612 80.8301 76.5355C80.8301 76.1098 81.2845 75.7637 81.8455 75.7637H84.8916C85.4526 75.7637 85.9069 76.1098 85.9069 76.5355C85.9069 76.9612 85.4526 77.3073 84.8916 77.3073Z" fill="#023F6B"/>
  <path d="M60.1844 80.7133C59.9257 80.7133 59.6706 80.6389 59.4783 80.4952L49.2705 72.9725C49.073 72.8272 48.9629 72.6282 48.9629 72.4188C48.9629 72.2111 49.073 72.0104 49.2705 71.865L59.4783 64.3423C59.7702 64.126 60.2053 64.0654 60.5811 64.1866C60.9568 64.3077 61.1997 64.5863 61.1997 64.8978V67.5334H67.4335C67.9945 67.5334 68.4488 67.8796 68.4488 68.3053C68.4488 68.731 67.9945 69.0754 67.4335 69.0754H60.1844C59.6234 69.0754 59.169 68.731 59.169 68.3053V66.7201L51.4358 72.4188L59.169 78.1174V76.5323C59.169 76.1066 59.6234 75.7604 60.1844 75.7604H67.4335C67.9945 75.7604 68.4488 76.1066 68.4488 76.5323C68.4488 76.958 67.9945 77.3041 67.4335 77.3041H61.1997V79.9397C61.1997 80.2495 60.9551 80.5298 60.5811 80.651C60.4535 80.6942 60.3189 80.7133 60.1844 80.7133Z" fill="#023F6B"/>
  <path d="M84.8916 69.0771H81.8455C81.2845 69.0771 80.8301 68.7327 80.8301 68.307C80.8301 67.8795 81.2845 67.5352 81.8455 67.5352H84.8916C85.4526 67.5352 85.9069 67.8813 85.9069 68.307C85.9069 68.731 85.4526 69.0771 84.8916 69.0771Z" fill="#023F6B"/>
  <path d="M78.0583 69.0771H74.2712C73.7102 69.0771 73.2559 68.7327 73.2559 68.307C73.2559 67.8795 73.7102 67.5352 74.2712 67.5352H78.0583C78.6193 67.5352 79.0737 67.8813 79.0737 68.307C79.0737 68.731 78.6176 69.0771 78.0583 69.0771Z" fill="#023F6B"/>
  <path d="M70.4814 69.0771H67.4353C66.8743 69.0771 66.4199 68.7327 66.4199 68.307C66.4199 67.8795 66.8743 67.5352 67.4353 67.5352H70.4814C71.0424 67.5352 71.4968 67.8813 71.4968 68.307C71.4968 68.731 71.0424 69.0771 70.4814 69.0771Z" fill="#023F6B"/>
  <path d="M68.831 52.8737H65.7849C65.2239 52.8737 64.7695 52.5276 64.7695 52.1019C64.7695 51.6762 65.2239 51.3301 65.7849 51.3301H68.831C69.392 51.3301 69.8464 51.6762 69.8464 52.1019C69.8464 52.5293 69.392 52.8737 68.831 52.8737Z" fill="#023F6B"/>
  <path d="M61.9995 52.8737H58.2107C57.6497 52.8737 57.1953 52.5276 57.1953 52.1019C57.1953 51.6762 57.6497 51.3301 58.2107 51.3301H61.9995C62.5605 51.3301 63.0149 51.6762 63.0149 52.1019C63.0149 52.5293 62.5588 52.8737 61.9995 52.8737Z" fill="#023F6B"/>
  <path d="M76.083 64.5109C75.9502 64.5109 75.8157 64.4918 75.6881 64.4486C75.3123 64.3292 75.0694 64.0488 75.0694 63.739V61.1034H68.8357C68.2747 61.1034 67.8203 60.759 67.8203 60.3333C67.8203 59.9059 68.2747 59.5615 68.8357 59.5615H76.0848C76.6458 59.5615 77.1002 59.9059 77.1002 60.3333V61.9185L84.8334 56.2181L77.1002 50.5194V52.1029C77.1002 52.5303 76.6458 52.8747 76.0848 52.8747H68.8357C68.2747 52.8747 67.8203 52.5286 67.8203 52.1029C67.8203 51.6771 68.2747 51.331 68.8357 51.331H75.0694V48.6954C75.0694 48.3856 75.3123 48.107 75.6881 47.9842C76.0621 47.8648 76.4972 47.9253 76.7908 48.1416L86.9986 55.6643C87.1961 55.8114 87.3062 56.0104 87.3062 56.2181C87.3062 56.4275 87.1961 56.6265 86.9986 56.7719L76.7908 64.2946C76.5968 64.4365 76.3434 64.5109 76.083 64.5109Z" fill="#023F6B"/>
  <path d="M61.9977 61.1044H58.2107C57.6497 61.1044 57.1953 60.76 57.1953 60.3343C57.1953 59.9069 57.6497 59.5625 58.2107 59.5625H61.9977C62.5587 59.5625 63.0131 59.9069 63.0131 60.3343C63.0131 60.76 62.5587 61.1044 61.9977 61.1044Z" fill="#023F6B"/>
  <path d="M68.831 61.1044H65.7849C65.2239 61.1044 64.7695 60.76 64.7695 60.3343C64.7695 59.9069 65.2239 59.5625 65.7849 59.5625H68.831C69.392 59.5625 69.8464 59.9069 69.8464 60.3343C69.8464 60.76 69.392 61.1044 68.831 61.1044Z" fill="#023F6B"/>
  <path d="M15.5078 58.8897V55.5809L18.5592 52.8484C23.7164 48.2797 26.2225 45.6545 26.2959 42.9219C26.2959 41.0149 25.1337 39.5059 22.4092 39.5059C20.3749 39.5059 18.5959 40.513 17.3603 41.4475L15.7979 37.5278C17.5787 36.197 20.3382 35.1172 23.5346 35.1172C28.8736 35.1172 31.8149 38.2114 31.8149 42.4547C31.8149 46.3744 28.9453 49.5032 25.5322 52.5247L23.3529 54.3245V54.3972H32.2518V58.8931H15.5078V58.8897Z" fill="#023F6B"/>
  <path d="M45.4399 58.8897V53.3156H34.9805V49.7541L43.9143 35.5117H50.6706V49.2142H53.5034V53.3138H50.6706V58.8879H45.4399V58.8897ZM45.4399 49.2159V44.0364C45.4399 42.6329 45.5133 41.1948 45.6217 39.6841H45.4766C44.7147 41.1948 44.096 42.562 43.2974 44.0364L40.1377 49.1432V49.2159H45.4399Z" fill="#023F6B"/>
  <path d="M34.9344 26.4168C34.6636 26.4168 34.4434 26.1987 34.4434 25.9322V22.4902C34.4434 22.222 34.6636 22.0039 34.9344 22.0039C35.2053 22.0039 35.4255 22.222 35.4255 22.4902V25.9305C35.4255 26.1987 35.2053 26.4168 34.9344 26.4168Z" fill="#023F6B"/>
  <path d="M34.9344 74.3643C34.6636 74.3643 34.4434 74.1462 34.4434 73.8797V70.4394C34.4434 70.1712 34.6636 69.9531 34.9344 69.9531C35.2053 69.9531 35.4255 70.1712 35.4255 70.4394V73.8797C35.4255 74.1462 35.2053 74.3643 34.9344 74.3643Z" fill="#023F6B"/>
  <path d="M9.15124 49.0292C8.88036 49.0292 8.66016 48.8112 8.66016 48.5429C8.66016 48.2747 8.88036 48.0566 9.15124 48.0566H12.6238C12.8946 48.0566 13.1148 48.2747 13.1148 48.5429C13.1148 48.8112 12.8946 49.0292 12.6238 49.0292H9.15124Z" fill="#023F6B"/>
  <path d="M115 98V0" stroke="#FF6600" stroke-width="2"/>
</svg>