<svg width="135" height="104" viewBox="0 0 135 104" fill="none" xmlns="http://www.w3.org/2000/svg">
<g clip-path="url(#clip0_4961_6134)">
<path d="M91.7425 75H2.2626C1.2947 75 0.5 74.2269 0.5 73.2743V1.72575C0.5 0.778084 1.28961 0 2.2626 0H91.7374C92.7053 0 93.5 0.773096 93.5 1.72575V73.2743C93.5 74.2269 92.7104 75 91.7425 75ZM4.0252 71.5485H89.9799V3.45148H4.0252V71.5485Z" fill="white"/>
<path d="M16.5 66.5C16.4436 66.5 16.3309 66.4656 16.2092 66.2824C16.0899 66.1028 16 65.8261 16 65.496V8.504C16 8.17393 16.0899 7.89718 16.2092 7.71762C16.3309 7.53442 16.4436 7.5 16.5 7.5C16.5564 7.5 16.6691 7.53442 16.7908 7.71762C16.9101 7.89718 17 8.17393 17 8.504V65.496C17 65.8251 16.9096 66.1018 16.7897 66.2818C16.6668 66.4663 16.5537 66.5 16.5 66.5Z" fill="white" stroke="white"/>
<path d="M31.5 66.5C31.4436 66.5 31.3309 66.4656 31.2092 66.2824C31.0899 66.1028 31 65.8261 31 65.496V8.504C31 8.17393 31.0899 7.89718 31.2092 7.71762C31.3309 7.53443 31.4436 7.5 31.5 7.5C31.5564 7.5 31.6691 7.53442 31.7908 7.71762C31.9101 7.89718 32 8.17393 32 8.504V65.496C32 65.8261 31.9101 66.1028 31.7908 66.2824C31.6691 66.4656 31.5564 66.5 31.5 66.5Z" fill="white" stroke="white"/>
<path d="M59.798 66.576C59.798 66.576 59.7983 66.5756 59.7991 66.5748L59.798 66.576ZM60.2007 7.42447C60.2007 7.42448 60.2004 7.42483 60.1998 7.42548L60.2007 7.42447Z" fill="white" stroke="white"/>
<path d="M74.5 66.5C74.4436 66.5 74.3309 66.4656 74.2092 66.2824C74.0899 66.1028 74 65.8261 74 65.496V8.504C74 8.17393 74.0899 7.89718 74.2092 7.71762C74.3309 7.53442 74.4436 7.5 74.5 7.5C74.5564 7.5 74.6691 7.53443 74.7908 7.71762C74.9101 7.89718 75 8.17393 75 8.504V65.496C75 65.8261 74.9101 66.1028 74.7908 66.2824C74.6691 66.4656 74.5564 66.5 74.5 66.5Z" fill="white" stroke="white"/>
<path d="M47 75C46.1593 75 45.5 73.5265 45.5 71.6489V4.35109C45.5 2.4735 46.1593 1 47 1C47.8407 1 48.5 2.4735 48.5 4.35109V71.6489C48.5 73.5265 47.8379 75 47 75Z" fill="white"/>
<path d="M47 75C46.1593 75 45.5 73.5265 45.5 71.6489V4.35109C45.5 2.4735 46.1593 1 47 1C47.8407 1 48.5 2.4735 48.5 4.35109V71.6489C48.5 73.5265 47.8379 75 47 75Z" stroke="white"/>
<path d="M53.5 36H38.5V39H53.5V36Z" fill="white"/>
<path d="M178.301 75.8517L163.569 71.1517L156.289 58.5103C154.319 55.1069 150.55 53 146.524 53H119.973C115.862 53 112.179 55.1069 110.209 58.5103L102.586 71.719V71.8C102.5 71.881 102.5 71.9621 102.5 72.0431V91.8966C102.5 92.7879 103.271 93.5172 104.213 93.5172H111.236C112.007 97.2448 115.519 100 119.63 100C123.741 100 127.253 97.2448 128.024 93.5172H154.062C154.833 97.2448 158.344 100 162.456 100C166.567 100 170.078 97.2448 170.849 93.5172H177.787C178.729 93.5172 179.5 92.7879 179.5 91.8966V77.3914C179.5 76.6621 179.072 76.0948 178.301 75.8517ZM130.679 56.3224H146.524C149.351 56.3224 151.92 57.781 153.291 60.131L159.458 70.9086H130.679V56.3224ZM113.206 60.131C114.577 57.781 117.146 56.3224 119.973 56.3224H127.253V70.9086H107.039L113.206 60.131ZM111.151 90.3569H105.84V87.1155H112.692C111.922 88.0879 111.408 89.1414 111.151 90.3569ZM119.544 96.8397C116.718 96.8397 114.405 94.6517 114.405 91.9776C114.405 89.3034 116.718 87.1155 119.544 87.1155C122.371 87.1155 124.684 89.3034 124.684 91.9776C124.684 94.6517 122.371 96.8397 119.544 96.8397ZM162.37 96.8397C159.543 96.8397 157.231 94.6517 157.231 91.9776C157.231 89.3034 159.543 87.1155 162.37 87.1155C165.196 87.1155 167.509 89.3034 167.509 91.9776C167.509 94.6517 165.196 96.8397 162.37 96.8397ZM176.074 90.3569H170.764C169.993 86.6293 166.481 83.8741 162.37 83.8741C158.259 83.8741 154.747 86.6293 153.976 90.3569H127.938C127.167 86.6293 123.656 83.8741 119.544 83.8741H105.84V74.15H162.113L176.074 78.5259V90.3569Z" fill="white"/>
<path d="M115.5 56L103.833 43H95.5" stroke="white" stroke-width="4"/>
</g>
<defs>
<clipPath id="clip0_4961_6134">
<rect width="134" height="104" fill="white" transform="translate(0.5)"/>
</clipPath>
</defs>
</svg>
