<svg width="131" height="104" viewBox="0 0 131 104" fill="none" xmlns="http://www.w3.org/2000/svg">
<g clip-path="url(#clip0_4961_6102)">
<path d="M52.6996 95.468C28.3318 95.468 8.50781 75.8377 8.50781 51.7054C8.50781 27.5731 28.3318 7.94531 52.6996 7.94531C69.4805 7.94531 84.61 17.1678 92.1761 32.0133C94.178 35.942 95.5619 40.1329 96.2915 44.4729C96.3227 44.6631 96.2785 44.8534 96.1669 45.0102C96.0526 45.1671 95.8865 45.2725 95.6917 45.3033C95.6839 45.3033 95.6736 45.3033 95.6632 45.3033C95.2062 45.3033 94.9076 45.0462 94.8505 44.7094C94.1442 40.5108 92.8045 36.4588 90.8701 32.6638C83.5507 18.3094 68.9248 9.39284 52.697 9.39284C29.1341 9.39284 9.96443 28.3752 9.96443 51.7079C9.96443 75.0406 29.1341 94.023 52.697 94.023C56.6124 94.023 60.4915 93.4985 64.2226 92.4675C64.2538 92.4649 64.2824 92.4649 64.3109 92.4649C64.7783 92.4649 65.0405 92.6758 65.1236 92.9689C65.1781 93.154 65.1522 93.3494 65.0561 93.5191C64.96 93.6862 64.8068 93.807 64.6199 93.8585C60.759 94.9255 56.7474 95.468 52.6996 95.468Z" fill="white"/>
<path d="M52.7122 103.409C23.9226 103.409 0.5 80.2156 0.5 51.7047C0.5 23.1939 23.9226 0 52.7122 0C72.5413 0 90.4127 10.8963 99.3523 28.4363C101.785 33.2083 103.444 38.3068 104.286 43.5904C104.415 44.4054 103.852 45.169 103.031 45.2976C102.219 45.4313 101.437 44.8708 101.307 44.0557C100.516 39.0781 98.9499 34.2779 96.6598 29.7836C88.2343 13.2566 71.3963 2.99018 52.7122 2.99018C25.5844 2.99018 3.51708 24.8445 3.51708 51.7073C3.51708 78.5701 25.587 100.424 52.7122 100.424C58.1959 100.424 63.5783 99.54 68.7089 97.7916C69.4983 97.5217 70.3551 97.9382 70.6277 98.7172C70.8978 99.4988 70.4771 100.347 69.6904 100.617C64.243 102.468 58.5308 103.409 52.7122 103.409Z" fill="white"/>
<path d="M105.214 94.0571H100.688C99.8548 94.0571 99.1797 93.5429 99.1797 92.9104C99.1797 92.2779 99.8548 91.7637 100.688 91.7637H105.214C106.047 91.7637 106.722 92.2779 106.722 92.9104C106.722 93.5429 106.047 94.0571 105.214 94.0571Z" fill="white"/>
<path d="M116.471 94.0571H110.844C110.011 94.0571 109.336 93.5429 109.336 92.9104C109.336 92.2779 110.011 91.7637 110.844 91.7637H116.471C117.305 91.7637 117.98 92.2779 117.98 92.9104C117.98 93.5429 117.302 94.0571 116.471 94.0571Z" fill="white"/>
<path d="M126.624 94.0571H122.098C121.265 94.0571 120.59 93.5429 120.59 92.9104C120.59 92.2779 121.265 91.7637 122.098 91.7637H126.624C127.458 91.7637 128.133 92.2779 128.133 92.9104C128.133 93.5429 127.458 94.0571 126.624 94.0571Z" fill="white"/>
<path d="M89.918 99.1181C89.5337 99.1181 89.1546 99.0075 88.869 98.7941L73.7031 87.6176C73.4097 87.4016 73.2461 87.1059 73.2461 86.7948C73.2461 86.4863 73.4097 86.188 73.7031 85.9721L88.869 74.7955C89.3026 74.4741 89.9491 74.3841 90.5074 74.5641C91.0656 74.7441 91.4265 75.1581 91.4265 75.6208V79.5366H100.688C101.522 79.5366 102.197 80.0508 102.197 80.6833C102.197 81.3158 101.522 81.8275 100.688 81.8275H89.918C89.0845 81.8275 88.4094 81.3158 88.4094 80.6833V78.3282L76.9201 86.7948L88.4094 95.2614V92.9063C88.4094 92.2738 89.0845 91.7596 89.918 91.7596H100.688C101.522 91.7596 102.197 92.2738 102.197 92.9063C102.197 93.5388 101.522 94.053 100.688 94.053H91.4265V97.9688C91.4265 98.429 91.063 98.8455 90.5074 99.0255C90.3178 99.0898 90.1179 99.1181 89.918 99.1181Z" fill="white"/>
<path d="M126.624 81.828H122.098C121.265 81.828 120.59 81.3163 120.59 80.6838C120.59 80.0488 121.265 79.5371 122.098 79.5371H126.624C127.458 79.5371 128.133 80.0513 128.133 80.6838C128.133 81.3137 127.458 81.828 126.624 81.828Z" fill="white"/>
<path d="M116.471 81.828H110.844C110.011 81.828 109.336 81.3163 109.336 80.6838C109.336 80.0488 110.011 79.5371 110.844 79.5371H116.471C117.305 79.5371 117.98 80.0513 117.98 80.6838C117.98 81.3137 117.302 81.828 116.471 81.828Z" fill="white"/>
<path d="M105.214 81.828H100.688C99.8548 81.828 99.1797 81.3163 99.1797 80.6838C99.1797 80.0488 99.8548 79.5371 100.688 79.5371H105.214C106.047 79.5371 106.722 80.0513 106.722 80.6838C106.722 81.3137 106.047 81.828 105.214 81.828Z" fill="white"/>
<path d="M102.765 57.7544H98.239C97.4056 57.7544 96.7305 57.2401 96.7305 56.6077C96.7305 55.9752 97.4056 55.4609 98.239 55.4609H102.765C103.598 55.4609 104.273 55.9752 104.273 56.6077C104.273 57.2427 103.598 57.7544 102.765 57.7544Z" fill="white"/>
<path d="M92.6143 57.7544H86.9851C86.1516 57.7544 85.4766 57.2401 85.4766 56.6077C85.4766 55.9752 86.1516 55.4609 86.9851 55.4609H92.6143C93.4477 55.4609 94.1228 55.9752 94.1228 56.6077C94.1228 57.2427 93.4451 57.7544 92.6143 57.7544Z" fill="white"/>
<path d="M113.538 75.0459C113.34 75.0459 113.141 75.0177 112.951 74.9534C112.393 74.776 112.032 74.3595 112.032 73.8992V69.9835H102.77C101.937 69.9835 101.262 69.4718 101.262 68.8393C101.262 68.2043 101.937 67.6926 102.77 67.6926H113.54C114.374 67.6926 115.049 68.2043 115.049 68.8393V71.1944L126.538 62.7253L115.049 54.2586V56.6112C115.049 57.2462 114.374 57.7579 113.54 57.7579H102.77C101.937 57.7579 101.262 57.2437 101.262 56.6112C101.262 55.9787 101.937 55.4645 102.77 55.4645H112.032V51.5487C112.032 51.0885 112.393 50.6745 112.951 50.492C113.507 50.3146 114.153 50.4046 114.589 50.7259L129.755 61.9025C130.049 62.121 130.212 62.4167 130.212 62.7253C130.212 63.0364 130.049 63.332 129.755 63.548L114.589 74.7246C114.301 74.9354 113.925 75.0459 113.538 75.0459Z" fill="white"/>
<path d="M92.6116 69.9822H86.9851C86.1516 69.9822 85.4766 69.4706 85.4766 68.8381C85.4766 68.2031 86.1516 67.6914 86.9851 67.6914H92.6116C93.4451 67.6914 94.1201 68.2031 94.1201 68.8381C94.1201 69.4706 93.4451 69.9822 92.6116 69.9822Z" fill="white"/>
<path d="M102.765 69.9822H98.239C97.4056 69.9822 96.7305 69.4706 96.7305 68.8381C96.7305 68.2031 97.4056 67.6914 98.239 67.6914H102.765C103.598 67.6914 104.273 68.2031 104.273 68.8381C104.273 69.4706 103.598 69.9822 102.765 69.9822Z" fill="white"/>
<path d="M23.5391 66.6941V61.7782L28.0725 57.7184C35.7347 50.9307 39.458 47.0304 39.5671 42.9706C39.5671 40.1373 37.8404 37.8953 33.7925 37.8953C30.7702 37.8953 28.127 39.3917 26.2913 40.7801L23.9701 34.9565C26.6159 32.9794 30.7157 31.375 35.4646 31.375C43.3968 31.375 47.7667 35.9721 47.7667 42.2764C47.7667 48.1 43.5033 52.7485 38.4324 57.2376L35.1946 59.9116V60.0196H48.4158V66.6993H23.5391V66.6941Z" fill="white"/>
<path d="M68.0085 66.6939V58.4124H52.4688V53.1211L65.7418 31.9609H75.7797V52.3189H79.9886V58.4098H75.7797V66.6913H68.0085V66.6939ZM68.0085 52.3214V44.6262C68.0085 42.541 68.1176 40.4044 68.2786 38.1598H68.0631C66.931 40.4044 66.0119 42.4356 64.8253 44.6262L60.1309 52.2135V52.3214H68.0085Z" fill="white"/>
<path d="M52.4015 18.4469C51.999 18.4469 51.6719 18.123 51.6719 17.727V12.6131C51.6719 12.2146 51.999 11.8906 52.4015 11.8906C52.8039 11.8906 53.1311 12.2146 53.1311 12.6131V17.7244C53.1311 18.123 52.8039 18.4469 52.4015 18.4469Z" fill="white"/>
<path d="M52.4015 89.6846C51.999 89.6846 51.6719 89.3606 51.6719 88.9647V83.8533C51.6719 83.4548 51.999 83.1309 52.4015 83.1309C52.8039 83.1309 53.1311 83.4548 53.1311 83.8533V88.9647C53.1311 89.3606 52.8039 89.6846 52.4015 89.6846Z" fill="white"/>
<path d="M14.0968 52.0426C13.6943 52.0426 13.3672 51.7186 13.3672 51.3201C13.3672 50.9216 13.6943 50.5977 14.0968 50.5977H19.256C19.6584 50.5977 19.9856 50.9216 19.9856 51.3201C19.9856 51.7186 19.6584 52.0426 19.256 52.0426H14.0968Z" fill="white"/>
</g>
<defs>
<clipPath id="clip0_4961_6102">
<rect width="130" height="104" fill="white" transform="translate(0.5)"/>
</clipPath>
</defs>
</svg>
