<svg width="210" height="65" viewBox="0 0 210 65" fill="none" xmlns="http://www.w3.org/2000/svg">
<path d="M74.6195 20.7412H73.0192V28.1556C73.0192 29.1158 72.8058 29.8626 72.3791 30.2893C71.9524 30.7694 71.419 30.9827 70.7255 30.9827C69.9787 30.9827 69.392 30.716 69.0186 30.236C68.5919 29.7559 68.4318 29.0625 68.4318 28.1023V10.4462C68.3785 9.4861 68.5919 8.73931 69.0719 8.31258C69.4987 7.83251 70.2454 7.61914 71.2056 7.61914H78.7801C79.8469 7.61914 80.7004 7.67248 81.4472 7.72582C82.194 7.83251 82.8341 7.99253 83.4742 8.25924C84.2209 8.57929 84.8077 9.00602 85.3944 9.53944C85.9279 10.1262 86.3546 10.7663 86.6746 11.5131C86.9414 12.2599 87.1014 13.06 87.1014 13.8601C87.1014 15.567 86.6213 16.9539 85.6612 17.9674C84.701 18.9809 83.2074 19.7277 81.2871 20.1544C82.0873 20.5811 82.8874 21.2212 83.6342 22.128C84.381 22.9815 85.0744 23.8883 85.6612 24.8485C86.2479 25.8086 86.728 26.7154 87.048 27.4622C87.3681 28.2623 87.5281 28.7957 87.5281 29.0625C87.5281 29.3825 87.4214 29.6492 87.2614 29.9693C87.048 30.2893 86.7813 30.5027 86.4613 30.6627C86.1412 30.8227 85.7145 30.9294 85.2878 30.9294C84.7544 30.9294 84.3276 30.8227 83.9542 30.556C83.5808 30.2893 83.3141 30.0226 83.0474 29.5959C82.7807 29.2225 82.4607 28.6357 81.9806 27.9423L80.1136 24.8485C79.4202 23.7283 78.8334 22.8215 78.3 22.2347C77.7666 21.648 77.2332 21.2212 76.6998 21.0079C76.1664 20.8478 75.4729 20.7412 74.6195 20.7412ZM77.2865 11.0863H73.0192V17.434H77.1798C78.3 17.434 79.2068 17.3273 80.0069 17.1673C80.7537 16.9539 81.3405 16.6339 81.7672 16.1538C82.194 15.6737 82.354 15.0336 82.354 14.2335C82.354 13.5934 82.194 13.0066 81.8739 12.5266C81.5539 12.0465 81.1271 11.6731 80.5404 11.4597C79.9536 11.2464 78.8868 11.0863 77.2865 11.0863Z" fill="white"/>
<path d="M108.278 11.193H97.8233V16.8472H107.478C108.172 16.8472 108.705 17.0073 109.078 17.3273C109.452 17.6474 109.612 18.0741 109.612 18.6075C109.612 19.1409 109.452 19.5677 109.078 19.8877C108.758 20.2078 108.225 20.3678 107.478 20.3678H97.8233V26.9288H108.652C109.398 26.9288 109.932 27.0888 110.305 27.4622C110.679 27.7823 110.839 28.2623 110.839 28.7957C110.839 29.3292 110.679 29.7559 110.305 30.1293C109.932 30.4493 109.398 30.6627 108.652 30.6627H96.0097C94.9962 30.6627 94.2494 30.4493 93.8227 29.9693C93.396 29.5425 93.1826 28.7957 93.1826 27.7823V10.4462C93.1826 9.7528 93.2893 9.21939 93.5027 8.79266C93.716 8.36592 94.0361 8.04587 94.4095 7.88585C94.8362 7.67248 95.3696 7.61914 96.0097 7.61914H108.278C109.025 7.61914 109.558 7.77917 109.932 8.09921C110.305 8.41926 110.465 8.846 110.465 9.37941C110.465 9.91283 110.305 10.3396 109.932 10.6596C109.558 11.033 109.025 11.193 108.278 11.193Z" fill="white"/>
<path d="M124.013 27.1422L120.333 12.5266V28.4224C120.333 29.2758 120.119 29.9693 119.746 30.396C119.373 30.8227 118.839 31.0361 118.199 31.0361C117.559 31.0361 117.079 30.8227 116.652 30.396C116.279 29.9693 116.065 29.2758 116.065 28.4224V10.1795C116.065 9.16605 116.332 8.47261 116.866 8.15256C117.399 7.77917 118.092 7.61914 118.999 7.61914H120.439C121.293 7.61914 121.933 7.67248 122.306 7.83251C122.68 7.99253 123 8.25924 123.16 8.68597C123.32 9.1127 123.587 9.7528 123.8 10.6596L127.16 23.2482L130.521 10.6596C130.734 9.7528 131.001 9.05936 131.161 8.68597C131.374 8.25924 131.641 7.99253 132.015 7.83251C132.388 7.67248 133.028 7.61914 133.882 7.61914H135.322C136.229 7.61914 136.922 7.77917 137.455 8.15256C137.989 8.52595 138.256 9.16605 138.256 10.1795V28.369C138.256 29.2225 138.042 29.9159 137.669 30.3426C137.295 30.7694 136.762 30.9827 136.122 30.9827C135.482 30.9827 135.002 30.7694 134.628 30.3426C134.255 29.9159 134.042 29.2225 134.042 28.369V12.5266L130.361 27.1955C130.094 28.1556 129.934 28.8491 129.774 29.2758C129.614 29.7025 129.347 30.1293 128.921 30.5027C128.494 30.8761 127.961 31.0361 127.214 31.0361C126.68 31.0361 126.2 30.9294 125.827 30.6627C125.454 30.4493 125.133 30.1293 124.973 29.7559C124.76 29.3825 124.6 29.0091 124.493 28.529C124.28 28.1023 124.12 27.6222 124.013 27.1422Z" fill="white"/>
<path d="M159.806 11.193H149.298V16.8472H158.953C159.646 16.8472 160.18 17.0073 160.553 17.3273C160.926 17.6474 161.086 18.0741 161.086 18.6075C161.086 19.1409 160.926 19.5677 160.553 19.8877C160.233 20.2078 159.7 20.3678 158.953 20.3678H149.298V26.9288H160.126C160.873 26.9288 161.406 27.0888 161.78 27.4622C162.153 27.7823 162.313 28.2623 162.313 28.7957C162.313 29.3292 162.153 29.7559 161.78 30.1293C161.406 30.4493 160.873 30.6627 160.126 30.6627H147.484C146.471 30.6627 145.724 30.4493 145.297 29.9693C144.871 29.5425 144.657 28.7957 144.657 27.7823V10.4462C144.657 9.7528 144.764 9.21939 144.977 8.79266C145.191 8.36592 145.511 8.04587 145.884 7.88585C146.311 7.67248 146.844 7.61914 147.484 7.61914H159.753C160.5 7.61914 161.033 7.77917 161.406 8.09921C161.78 8.41926 161.94 8.846 161.94 9.37941C161.94 9.91283 161.78 10.3396 161.406 10.6596C161.14 11.033 160.553 11.193 159.806 11.193Z" fill="white"/>
<path d="M170.687 7.61914H176.768C178.368 7.61914 179.702 7.77917 180.822 8.04587C181.942 8.36592 182.956 8.89934 183.916 9.69946C186.316 11.7264 187.49 14.8736 187.49 19.0342C187.49 20.4211 187.383 21.648 187.116 22.8215C186.903 23.9417 186.53 25.0085 185.996 25.9153C185.516 26.8221 184.876 27.6222 184.076 28.369C183.436 28.9024 182.796 29.3825 182.049 29.7025C181.302 30.0226 180.555 30.2893 179.702 30.396C178.848 30.556 177.888 30.6094 176.875 30.6094H170.794C169.94 30.6094 169.3 30.5027 168.873 30.236C168.447 29.9693 168.18 29.5959 168.02 29.1691C167.913 28.6891 167.807 28.1023 167.807 27.3555V10.4462C167.807 9.43275 168.02 8.73931 168.5 8.25924C168.98 7.83251 169.674 7.61914 170.687 7.61914ZM172.501 11.2997V26.8754H176.021C176.768 26.8754 177.408 26.8754 177.835 26.8221C178.262 26.7688 178.742 26.6621 179.222 26.5021C179.702 26.342 180.075 26.0753 180.449 25.8086C181.995 24.4751 182.796 22.2347 182.796 18.9809C182.796 16.6872 182.476 15.0336 181.782 13.8601C181.089 12.7399 180.235 11.9931 179.275 11.7264C178.262 11.4064 177.035 11.2464 175.648 11.2464H172.501V11.2997Z" fill="white"/>
<path d="M198.372 28.1554V20.9009L192.771 12.2063C192.291 11.4061 191.917 10.8194 191.704 10.3926C191.49 9.96591 191.384 9.59252 191.384 9.27247C191.384 8.73905 191.597 8.25898 192.024 7.88559C192.451 7.51219 192.931 7.29883 193.571 7.29883C194.211 7.29883 194.691 7.45885 195.011 7.83224C195.331 8.20563 195.811 8.89908 196.505 9.96591L200.772 16.9003L205.093 9.96591C205.359 9.53917 205.573 9.16578 205.733 8.89908C205.893 8.63237 206.106 8.31232 206.319 8.09895C206.533 7.83224 206.746 7.67222 207.013 7.51219C207.28 7.35217 207.6 7.29883 207.973 7.29883C208.56 7.29883 209.04 7.51219 209.413 7.88559C209.787 8.25898 210 8.68571 210 9.21912C210 9.64586 209.893 10.0192 209.68 10.446C209.467 10.8727 209.147 11.4061 208.666 12.1529L202.906 20.9543V28.2621C202.906 29.2222 202.692 29.9157 202.265 30.3957C201.839 30.8758 201.252 31.0892 200.612 31.0892C199.918 31.0892 199.385 30.8758 198.958 30.3957C198.585 29.8623 198.372 29.1155 198.372 28.1554Z" fill="white"/>
<path d="M77.6351 40.0136C76.3746 39.5934 75.6919 39.4359 74.4314 39.4359C73.0659 39.4359 71.4377 39.856 71.4377 41.3791C71.4377 44.1627 78.7905 43.5324 78.7905 48.2592C78.7905 51.3579 75.9545 52.5659 72.5407 52.5659C71.3327 52.5659 70.1773 52.2508 69.0218 51.9882L69.2844 50.0449C70.1247 50.3075 71.5953 50.7277 72.8558 50.7277C74.2738 50.7277 76.2171 50.0449 76.2171 48.3643C76.2171 45.1605 68.8643 46.0534 68.8643 41.5367C68.8643 38.9632 71.2802 37.5977 74.3789 37.5977C75.5343 37.5977 76.8473 37.7552 78.0553 38.1229L77.6351 40.0136Z" fill="white"/>
<path d="M91.763 51.8306C90.8702 52.0932 89.8723 52.5134 87.824 52.5134C83.3598 52.5134 81.3115 50.255 81.3115 46.7887C81.3115 43.69 83.6224 41.4316 87.1938 41.4316C91.3954 41.4316 92.7084 44.0051 92.7084 47.3664H83.78C83.78 49.4672 85.7232 50.8853 87.9291 50.8853C89.4521 50.8853 91.2378 50.2025 91.8155 49.8348V51.8306H91.763ZM90.2925 46.0009C90.2925 44.3728 89.137 43.0598 87.1938 43.0598C84.9354 43.0598 83.99 44.6354 83.8325 46.0009H90.2925Z" fill="white"/>
<path d="M96.3848 36.7578H98.6956V52.2512H96.3848V36.7578Z" fill="white"/>
<path d="M104.683 43.322H101.742V41.7464H104.683V40.801C104.683 38.2275 105.471 36.5469 108.885 36.5469C109.463 36.5469 109.988 36.5994 110.461 36.6519L110.355 38.2275C110.093 38.1225 109.62 38.1225 109.253 38.1225C107.257 38.1225 106.994 39.1729 106.994 40.6434V41.7989H110.303V43.3745H106.994V52.3554H104.683V43.322Z" fill="white"/>
<path d="M128.107 40.0136C126.847 39.5934 126.164 39.4359 124.903 39.4359C123.538 39.4359 121.91 39.856 121.91 41.3791C121.91 44.1627 129.315 43.5324 129.315 48.2592C129.315 51.3579 126.479 52.5659 123.065 52.5659C121.857 52.5659 120.702 52.2508 119.546 51.9882L119.809 50.0449C120.649 50.3075 122.12 50.7277 123.38 50.7277C124.798 50.7277 126.741 50.0449 126.741 48.3643C126.741 45.1605 119.389 46.0534 119.389 41.5367C119.389 38.9632 121.805 37.5977 124.903 37.5977C126.059 37.5977 127.372 37.7552 128.58 38.1229L128.107 40.0136Z" fill="white"/>
<path d="M139.293 43.3229H135.985V49.1001C135.985 50.3081 136.877 50.9909 137.928 50.9909C138.663 50.9909 139.136 50.7808 139.503 50.6232V52.2513C138.978 52.3564 138.296 52.5665 137.56 52.5665C135.197 52.5665 133.674 51.6211 133.674 49.5203V43.3229H130.785V41.7473H133.621V39.3314L135.932 38.7012V41.7473H139.241V43.3229H139.293Z" fill="white"/>
<path d="M147.959 41.4844C151.793 41.4844 154.314 43.7953 154.314 46.999C154.314 49.9926 151.688 52.5136 147.959 52.5136C144.178 52.5136 141.552 49.9926 141.552 46.999C141.604 43.7953 144.125 41.4844 147.959 41.4844ZM147.959 50.938C150.69 50.938 151.846 48.8897 151.846 46.999C151.846 45.0032 150.375 43.06 147.959 43.06C145.491 43.06 144.02 45.0032 144.02 46.999C144.02 48.8897 145.228 50.938 147.959 50.938Z" fill="white"/>
<path d="M157.676 41.747H159.829V43.3751H159.882C160.512 42.2722 161.825 41.4844 163.138 41.4844C163.821 41.4844 164.188 41.5369 164.661 41.6419V43.3751C164.241 43.2175 163.768 43.165 163.4 43.165C161.352 43.165 159.987 44.7931 159.987 47.4717V52.251H157.676V41.747Z" fill="white"/>
<path d="M168.074 42.4823C169.23 41.9045 170.595 41.4844 172.223 41.4844C175.795 41.4844 177.265 42.9549 177.265 45.8435V50.2027C177.265 51.4107 177.318 51.9359 177.37 52.251H175.217V50.8855H175.164C174.639 51.5157 173.379 52.5136 171.278 52.5136C168.547 52.5136 166.656 51.5157 166.656 49.2048C166.656 46.5788 170.123 45.7385 172.486 45.7385C173.379 45.7385 174.009 45.7385 174.954 45.791C174.954 43.9528 174.167 43.06 171.856 43.06C170.543 43.06 169.125 43.4801 168.232 44.1104L168.074 42.4823ZM174.954 47.2616C174.482 47.2616 173.957 47.2091 173.484 47.2091C172.223 47.2091 169.125 47.3666 169.125 49.2573C169.125 50.3603 170.385 50.9905 171.436 50.9905C173.746 50.9905 174.902 49.7825 174.902 48.2069V47.2616H174.954Z" fill="white"/>
<path d="M192.496 51.8306C192.496 55.0343 190.553 56.8725 186.036 56.8725C184.723 56.8725 183.568 56.715 181.52 56.1373L181.782 54.3516C183.568 55.0343 184.618 55.2969 186.299 55.2969C188.715 55.2969 190.185 53.9314 190.185 51.6731V50.6227H190.133C189.135 51.7256 187.507 52.2508 185.931 52.2508C182.36 52.2508 180.574 49.7823 180.574 47.0513C180.574 44.3202 182.412 41.4316 186.194 41.4316C188.4 41.4316 189.66 42.1144 190.343 43.2698H190.395V41.6942H192.549V51.8306H192.496ZM190.185 47.1038C190.185 44.898 188.977 43.0598 186.509 43.0598C184.198 43.0598 183.043 45.2131 183.043 46.9988C183.043 48.9945 184.356 50.7277 186.509 50.7277C188.715 50.7277 190.185 49.0996 190.185 47.1038Z" fill="white"/>
<path d="M206.309 51.8306C205.416 52.0932 204.418 52.5134 202.37 52.5134C197.906 52.5134 195.857 50.255 195.857 46.7887C195.857 43.69 198.168 41.4316 201.74 41.4316C205.941 41.4316 207.254 44.0051 207.254 47.3664H198.326C198.326 49.4672 200.269 50.8853 202.475 50.8853C203.998 50.8853 205.784 50.2025 206.361 49.8348V51.8306H206.309ZM204.786 46.0009C204.786 44.3728 203.63 43.0598 201.687 43.0598C199.429 43.0598 198.483 44.6354 198.326 46.0009H204.786Z" fill="white"/>
<path fill-rule="evenodd" clip-rule="evenodd" d="M20.1965 4.40339e-05L55.423 13.212V49.1778L20.1965 64.3471V64.3471L20.1964 64.3471L0 46.3678V14.904L20.1964 0.000105965V0L20.1965 4.40339e-05ZM21.7783 4.84766C22.8829 4.84766 23.7783 5.74309 23.7783 6.84766L23.7783 57.9393C23.7783 59.0439 22.8829 59.9393 21.7783 59.9393C20.6737 59.9393 19.7783 59.0439 19.7783 57.9393L19.7783 6.84766C19.7783 5.74309 20.6737 4.84766 21.7783 4.84766ZM42.0479 13.9727C42.0479 13.5584 41.7121 13.2227 41.2979 13.2227C40.8836 13.2227 40.5479 13.5584 40.5479 13.9727V50.3757C40.5479 50.79 40.8836 51.1257 41.2979 51.1257C41.7121 51.1257 42.0479 50.79 42.0479 50.3757V33.2318L42.7516 33.0559V31.5133L42.0479 31.3374V13.9727ZM38.3438 30.4102L39.666 30.8509V33.4953L38.3438 33.936V30.4102Z" fill="white"/>
</svg>
